<svg width="43" height="43" viewBox="0 0 43 43" fill="none" xmlns="http://www.w3.org/2000/svg">
<path fill-rule="evenodd" clip-rule="evenodd" d="M13.7782 39.0466C13.8808 38.9692 13.9817 38.8899 14.08 38.807C14.2895 38.6305 14.4881 38.44 14.6717 38.2349C14.7572 38.1395 14.8393 38.0409 14.9179 37.9391C14.9807 37.8577 15.041 37.774 15.1006 37.69C15.2019 37.5473 15.2998 37.4019 15.3944 37.2543C15.659 36.841 15.8971 36.4095 16.1087 35.9646C16.2104 35.7508 16.3055 35.5338 16.3954 35.3144C16.4132 35.2707 16.4309 35.2268 16.4482 35.1829C16.4541 35.1682 16.4655 35.1389 16.4655 35.1389C16.6344 35.3181 16.807 35.4935 16.9839 35.6643C17.4384 36.1032 17.9182 36.5136 18.4172 36.8968C18.6023 37.0391 18.79 37.1775 18.9803 37.3123C19.0841 37.3859 19.1883 37.4588 19.2941 37.5293C19.4364 37.624 19.5813 37.7144 19.7285 37.8007C20.0548 37.9921 20.3916 38.1637 20.7349 38.3198C20.8767 38.3843 21.0199 38.4457 21.1636 38.5056C21.2122 38.5255 21.2609 38.5453 21.3096 38.565C20.5991 40.1804 19.3672 41.5739 18.1115 42.6667C16.464 41.605 14.8933 40.3852 13.7782 39.0466ZM4.259 31.769C4.35751 31.8081 4.45654 31.8451 4.55679 31.8787C4.76762 31.9494 4.98288 32.0066 5.20118 32.0468C5.30151 32.0654 5.40246 32.0803 5.50383 32.0914C5.59661 32.1015 5.68964 32.108 5.78277 32.1135C5.90664 32.1209 6.03069 32.1256 6.15474 32.1276C6.54851 32.134 6.94272 32.1135 7.33381 32.0659C7.50363 32.0452 7.67259 32.0188 7.84103 31.9885C7.91296 31.975 7.91287 31.975 7.98471 31.9609C7.94805 32.1533 7.91452 32.3461 7.88594 32.54C7.8234 32.965 7.78196 33.3933 7.76103 33.8226C7.74956 34.0571 7.74426 34.2919 7.74504 34.5267C7.74556 34.7091 7.74956 34.8913 7.7625 35.0733C7.79065 35.4692 7.85458 35.8607 7.94145 36.247C7.95388 36.3009 7.96664 36.3546 7.97976 36.4083C8.0893 36.3928 8.1985 36.3754 8.30717 36.3541C8.53755 36.309 8.76532 36.2493 8.98761 36.1717C9.09073 36.1358 9.19271 36.096 9.29304 36.0522C9.37331 36.0171 9.45262 35.9793 9.5315 35.9411C9.64139 35.8877 9.75032 35.8323 9.85812 35.7747C10.3599 35.5068 10.8373 35.1928 11.2877 34.8405C11.3411 34.7984 11.394 34.756 11.4467 34.713C11.4992 34.6698 11.5513 34.6263 11.6031 34.5823C11.6667 34.8187 11.7348 35.0537 11.8098 35.2865C11.9753 35.8004 12.1699 36.3043 12.391 36.7952C12.4651 36.9596 12.5421 37.1226 12.6221 37.2841C12.6706 37.382 12.7197 37.4799 12.7712 37.5761C12.8374 37.7001 12.9071 37.8222 12.9801 37.942C13.1842 38.2774 13.4133 38.5951 13.6577 38.9001C13.6975 38.9492 13.7378 38.9981 13.7782 39.0466C12.6285 39.9006 11.2041 40.4019 9.88193 40.6859C9.06432 39.332 8.33584 37.8479 7.97976 36.4083C7.22235 36.5093 6.42664 36.4652 5.65377 36.3334C5.18285 36.2543 4.71741 36.1434 4.27229 36.0133C4.09074 34.6172 4.02672 33.1106 4.259 31.769ZM21.3096 38.565C21.372 38.421 21.4316 38.2757 21.4859 38.1283C21.6019 37.8144 21.6974 37.4923 21.7676 37.1641C21.8027 37.0004 21.8316 36.8354 21.8536 36.6693C21.8735 36.5196 21.8874 36.3691 21.8999 36.2185C21.9155 36.0296 21.9271 35.8405 21.9348 35.6511C21.9584 35.0713 21.945 34.4898 21.8942 33.9117C21.8716 33.6545 21.8411 33.3983 21.8042 33.1429C21.7934 33.0704 21.7822 32.9981 21.7705 32.9258L21.831 32.9427L21.8917 32.9596C22.1818 33.0389 22.4734 33.1123 22.7665 33.1786C23.5059 33.3461 24.2537 33.4722 25.0054 33.563C25.2718 33.5952 25.5387 33.623 25.8059 33.6464C25.9824 33.6619 26.1591 33.6764 26.336 33.6867C26.5565 33.6994 26.7773 33.7061 26.998 33.7073C27.5059 33.71 28.0138 33.6838 28.5195 33.6354C28.7567 33.6126 28.9931 33.5843 29.2294 33.553C29.6073 35.7227 29.2295 38.0309 28.5923 40.0625C27.5466 39.9726 26.5136 39.8485 25.52 39.681C23.9989 39.4261 22.5648 39.0667 21.3096 38.565ZM11.9332 34.2842C12.1318 34.0963 12.3225 33.8996 12.5068 33.6965C12.7361 33.444 12.9557 33.1818 13.1648 32.9112C13.3305 32.6964 13.4899 32.4763 13.6391 32.2488C13.7777 32.0372 13.9079 31.8194 14.0164 31.5894C14.0276 31.5646 14.0388 31.5399 14.0495 31.5148C14.139 31.7541 14.2492 31.9846 14.3662 32.2105C14.5115 32.4913 14.669 32.7653 14.8347 33.0336C15.0493 33.3812 15.2783 33.7195 15.5224 34.0456C15.7153 34.3033 15.9179 34.5533 16.1331 34.7913L16.0463 35.0124L16.0294 35.0547C15.933 35.295 15.8301 35.5323 15.7191 35.7656C15.5221 36.1796 15.3016 36.5813 15.057 36.9669C14.9587 37.1219 14.8566 37.2742 14.7507 37.4236C14.6653 37.5438 14.5781 37.6626 14.4846 37.7762C14.3122 37.9854 14.1226 38.1777 13.9219 38.3576C13.8962 38.3803 13.8706 38.4029 13.8444 38.4252C13.6202 38.1344 13.4143 37.8273 13.2325 37.5062C13.1533 37.3663 13.08 37.223 13.0086 37.0788C12.9241 36.9082 12.843 36.7358 12.7653 36.5619C12.5714 36.1274 12.3989 35.6827 12.2497 35.2297C12.1755 35.0043 12.1078 34.7768 12.0448 34.5479L12.003 34.3925L11.9332 34.2842ZM16.6407 34.6812L16.6428 34.6749C16.7648 34.3191 16.8701 33.9572 16.9578 33.5906C17.1022 32.9877 17.199 32.3722 17.2425 31.7525C17.2613 31.4839 17.2692 31.2149 17.2682 30.9456C17.2678 30.9012 17.2672 30.8568 17.2665 30.8123C17.541 31.0011 17.8198 31.1832 18.1044 31.3555C18.5406 31.6195 18.9896 31.8611 19.4499 32.0768C19.9244 32.2992 20.4107 32.4938 20.9056 32.6614C21.0392 32.7067 21.1735 32.7498 21.3083 32.7911L21.3508 33.0532L21.3589 33.1056C21.3939 33.3337 21.4236 33.5627 21.4467 33.7924C21.5061 34.385 21.5247 34.9821 21.503 35.5775C21.495 35.7969 21.4814 36.0163 21.4625 36.2351C21.4463 36.4215 21.4265 36.6074 21.3958 36.7919C21.3285 37.1982 21.2188 37.5973 21.075 37.9815L21.0462 37.9689C20.9103 37.9086 20.7752 37.8467 20.6414 37.7818C20.362 37.6461 20.088 37.4988 19.8219 37.337C19.723 37.277 19.6254 37.215 19.529 37.1509C19.4108 37.072 19.2944 36.9902 19.1786 36.9076C18.9483 36.7433 18.7217 36.5734 18.4992 36.3979C17.9292 35.9481 17.387 35.4608 16.8812 34.935C16.8006 34.8507 16.7205 34.766 16.6407 34.6812ZM8.44764 31.8557C8.88328 31.7421 9.3099 31.5903 9.72461 31.412C9.93492 31.3216 10.1424 31.2237 10.3459 31.1178C10.623 30.9737 10.8925 30.8142 11.1489 30.6333C11.187 30.6058 11.187 30.6059 11.2248 30.578C11.1942 30.8374 11.1841 31.0988 11.1837 31.3601C11.1833 31.6594 11.1957 31.9589 11.2172 32.2574C11.242 32.6027 11.2792 32.947 11.3298 33.2892C11.3702 33.5629 11.4194 33.8351 11.4804 34.1046L11.2972 34.2602C11.1281 34.4028 10.955 34.5399 10.7771 34.6704C10.4419 34.9163 10.0912 35.1398 9.72765 35.3378C9.6023 35.4061 9.47555 35.4714 9.34734 35.5335C9.23545 35.5878 9.12295 35.6404 9.00759 35.6862C8.78199 35.7759 8.54823 35.8453 8.31134 35.8947L8.31039 35.8897C8.25349 35.5928 8.21144 35.2933 8.19242 34.9911C8.1826 34.836 8.17982 34.6806 8.1793 34.5252C8.17878 34.3548 8.18156 34.1844 8.18764 34.0141C8.20163 33.6252 8.2329 33.2369 8.28198 32.851C8.30604 32.6623 8.33488 32.4745 8.36685 32.2872C8.37623 32.2343 8.38579 32.1815 8.39552 32.1285L8.44764 31.8557ZM14.3102 30.9666C14.6836 30.1105 14.9165 29.2205 14.9891 28.3375C15.4333 29.1109 16.0541 29.8291 16.8263 30.4685L16.8332 30.8852C16.8344 30.9916 16.8344 31.098 16.8324 31.2044C16.8274 31.4632 16.8124 31.7218 16.7878 31.9794C16.7332 32.5531 16.6314 33.1217 16.4874 33.6786C16.432 33.8931 16.3699 34.1056 16.3025 34.3165L16.2849 34.296C16.221 34.2204 16.1578 34.1443 16.0958 34.0671C15.9234 33.8521 15.759 33.6303 15.6015 33.4035C15.4228 33.1459 15.2528 32.8818 15.0918 32.612C14.962 32.3944 14.838 32.1729 14.7227 31.9467C14.6296 31.7644 14.542 31.579 14.4677 31.3876L14.3102 30.9666ZM11.7055 30.2139C12.3579 29.6807 12.9203 29.0513 13.3635 28.3433C13.3695 29.1951 13.5283 30.0653 13.8261 30.9292L13.6457 31.3482L13.6393 31.3627C13.5608 31.5357 13.4666 31.7004 13.3663 31.8607C13.2554 32.0384 13.1368 32.2107 13.0138 32.3794C12.8362 32.6228 12.6492 32.8589 12.4545 33.0877C12.2607 33.3155 12.0593 33.5363 11.8493 33.7481L11.8479 33.7409C11.7433 33.1976 11.676 32.647 11.6416 32.0941C11.6276 31.869 11.6191 31.6435 11.6182 31.4179C11.6172 31.1973 11.6236 30.9766 11.6427 30.7568C11.6467 30.7155 11.6466 30.7156 11.651 30.6743L11.7055 30.2139ZM34.2603 23.8131C36.3463 25.5981 37.7868 28.0933 38.7573 30.5969C35.47 32.0269 32.1628 33.1582 29.2294 33.553L29.2224 33.5126C29.1832 33.2976 29.1374 33.0841 29.0831 32.8726C28.9749 32.4518 28.8346 32.0395 28.6595 31.6433C28.5993 31.5069 28.535 31.3725 28.4665 31.2402C28.3998 31.1113 28.3294 30.9846 28.2579 30.8586C28.1025 30.5845 27.939 30.3154 27.7676 30.0518C27.4192 29.516 27.0388 29.0026 26.6291 28.5156C26.4352 28.285 26.2344 28.0609 26.0283 27.8421C25.9843 27.7958 25.9401 27.7497 25.8957 27.7037C26.2493 27.6093 26.6012 27.5081 26.9509 27.3993C27.7515 27.1503 28.5412 26.8644 29.3191 26.5475C29.7334 26.3786 30.1445 26.2008 30.5521 26.0148C30.7444 25.927 30.9364 25.8381 31.1267 25.7455C31.3197 25.6516 31.5109 25.5538 31.7004 25.4525C32.5012 25.024 33.2685 24.5316 34.0079 23.9982C34.0922 23.937 34.1764 23.8753 34.2603 23.8131ZM25.4021 27.8288L25.6324 28.0673L25.6753 28.112L25.7181 28.1571C25.9184 28.3695 26.1133 28.5872 26.3017 28.8111C26.7272 29.3172 27.1206 29.8525 27.4778 30.4125C27.6187 30.6334 27.7539 30.8581 27.8834 31.0864C27.952 31.2074 28.0198 31.3292 28.0838 31.4529C28.1362 31.5543 28.1861 31.657 28.2335 31.761C28.4378 32.2102 28.5934 32.6817 28.7064 33.164L28.6762 33.1674C28.481 33.1877 28.2858 33.206 28.09 33.2199C27.6507 33.2514 27.21 33.2644 26.7695 33.254C26.618 33.2505 26.4666 33.2441 26.3153 33.2347C26.1576 33.2249 26.0001 33.212 25.8427 33.1981C25.4865 33.1668 25.1309 33.1278 24.7763 33.0806C24.1118 32.9922 23.4506 32.8751 22.7965 32.7248C22.5308 32.6637 22.2664 32.5967 22.0033 32.5248C21.9036 32.4971 21.804 32.4693 21.7044 32.4413C21.6449 32.1048 21.5593 31.7731 21.4602 31.4469C21.3005 30.9207 21.1041 30.4064 20.8842 29.9043C20.7503 29.5989 20.6074 29.2973 20.4523 29.0029C20.3967 28.8975 20.3394 28.7929 20.2795 28.6902C20.2228 28.5928 20.164 28.4963 20.0977 28.4056C20.0865 28.3907 20.0751 28.3759 20.0633 28.3614L20.1241 28.3656L20.1852 28.3695C20.4789 28.387 20.773 28.3964 21.0672 28.3956C21.6098 28.3939 22.1523 28.3615 22.692 28.3052C23.4137 28.2298 24.1311 28.1109 24.8411 27.9577C25.0287 27.9172 25.2156 27.8741 25.4021 27.8288ZM17.2401 30.2545C17.1621 29.2333 16.9241 28.2754 16.5263 27.4355C17.352 27.8699 18.3342 28.1619 19.4437 28.3008L19.7378 28.6595L19.742 28.6649C19.7473 28.6718 19.7473 28.6718 19.7526 28.6788C19.8 28.7438 19.8425 28.8126 19.8837 28.882C19.9388 28.9745 19.9911 29.0687 20.0419 29.1638C20.1778 29.4174 20.3033 29.6772 20.4219 29.94C20.5822 30.2955 20.7297 30.6575 20.8614 31.0255C21.0102 31.4411 21.1392 31.8648 21.2331 32.2975L21.1895 32.2833C20.9685 32.2105 20.7488 32.1335 20.5311 32.0502C20.1799 31.9158 19.834 31.7666 19.4945 31.6029C19.1169 31.4209 18.7476 31.2209 18.387 31.0052C18.1953 30.8905 18.0065 30.7711 17.8195 30.6485C17.7567 30.6071 17.6943 30.5653 17.632 30.5233C17.5011 30.4341 17.3704 30.3444 17.2401 30.2545ZM2.74167 25.8271C2.98151 26.1125 3.23995 26.3808 3.52522 26.6174C3.6087 26.6867 3.69427 26.7532 3.78201 26.8167C3.84898 26.865 3.91726 26.9114 3.98589 26.9572C4.09291 27.0287 4.20132 27.0979 4.31104 27.1649C4.63306 27.3614 4.96629 27.5383 5.3089 27.6932C5.48733 27.7739 5.66845 27.8478 5.85131 27.9171C5.91941 27.9423 5.91941 27.9423 5.98769 27.9669C5.86312 28.1385 5.74237 28.3129 5.62701 28.4913C5.39177 28.8552 5.1772 29.2334 4.98349 29.6227C4.90947 29.7714 4.8385 29.9218 4.77057 30.0736C4.73452 30.1542 4.69899 30.2351 4.66563 30.3169C4.62854 30.4079 4.59379 30.5 4.56122 30.5928C4.44421 30.9263 4.35638 31.2695 4.28741 31.6169C4.27768 31.6675 4.26821 31.7181 4.259 31.769C3.15082 31.3289 2.08433 30.5125 1.1663 29.6412C1.51291 28.3211 2.01414 26.9344 2.74167 25.8271ZM6.41587 28.1257C6.5532 28.1687 6.69246 28.2054 6.83275 28.2372C7.03967 28.2841 7.24876 28.3203 7.45872 28.3486C7.70117 28.3812 7.94493 28.4029 8.18903 28.4154C8.48464 28.4306 8.78087 28.4317 9.07657 28.4172C9.118 28.415 9.15944 28.4124 9.20088 28.4096C9.23936 28.4067 9.27784 28.4036 9.31632 28.4001L9.2874 28.4488C9.19089 28.6131 9.09846 28.7797 9.01115 28.9494C8.80536 29.3498 8.62624 29.7647 8.47257 30.1893C8.34861 30.5318 8.24115 30.8808 8.14968 31.2341C8.12822 31.3167 8.10781 31.3995 8.08826 31.4825L7.83365 31.5327C7.65096 31.567 7.46758 31.5965 7.28308 31.619C6.9111 31.6643 6.53609 31.6838 6.1616 31.6777C6.04355 31.6758 5.92549 31.6713 5.80761 31.6643C5.69538 31.6576 5.58323 31.6492 5.47169 31.6346C5.23132 31.6031 4.99348 31.5482 4.76206 31.474L4.7631 31.4694C4.82999 31.1803 4.91147 30.895 5.01632 30.6179C5.07122 30.4727 5.13351 30.3306 5.19771 30.1895C5.26399 30.0441 5.33313 29.9002 5.40515 29.7579C5.57029 29.4317 5.75071 29.1139 5.94634 28.8064C6.02869 28.677 6.11408 28.5498 6.20139 28.4239C6.24517 28.3617 6.24517 28.3618 6.28938 28.2999L6.41587 28.1257ZM9.87046 28.3255C10.6376 28.19 11.3752 27.9232 12.0491 27.5265C11.6793 28.2716 11.4288 29.0986 11.2968 29.9734L10.9376 30.2375C10.6144 30.4702 10.2668 30.6647 9.91016 30.8363C9.47634 31.0448 9.02714 31.2187 8.56769 31.3564L8.56917 31.3507C8.69174 30.8822 8.84098 30.4217 9.02236 29.974C9.14137 29.6803 9.27367 29.3923 9.41978 29.1121C9.48711 28.9831 9.55756 28.8561 9.63044 28.7304C9.70984 28.5951 9.79002 28.4602 9.87046 28.3255ZM9.10297 25.6704C9.82563 25.9648 10.5759 26.119 11.3247 26.1152C10.6824 26.5952 10.1093 27.21 9.62254 27.9212L9.24318 27.9551L9.20748 27.9579C8.99309 27.9741 8.778 27.9795 8.563 27.9771C8.3394 27.9746 8.11589 27.9636 7.89315 27.9442C7.65783 27.9237 7.42311 27.8936 7.19047 27.8515C7.03081 27.8225 6.87167 27.7884 6.71487 27.7455L6.71964 27.7396C6.80356 27.6382 6.88886 27.5381 6.97625 27.4399C7.18465 27.2059 7.40374 26.982 7.63324 26.7704C7.84355 26.5764 8.06246 26.3925 8.2898 26.2205C8.40125 26.1362 8.51487 26.0552 8.62997 25.9764C8.67297 25.9475 8.71606 25.9188 8.75932 25.8904C8.87355 25.8165 8.98822 25.7434 9.10297 25.6704ZM20.8794 24.89L21.3409 25.0792C21.4829 25.1386 21.624 25.2 21.7637 25.2648C22.0734 25.4085 22.3769 25.5663 22.6735 25.737C23.2688 26.0795 23.8365 26.4731 24.3722 26.9083C24.5904 27.0854 24.8027 27.2698 25.0104 27.4599L24.9884 27.4649C24.1226 27.6603 23.2465 27.8076 22.3632 27.885C21.9319 27.9228 21.499 27.9444 21.066 27.9456C20.8406 27.9463 20.6152 27.9406 20.3901 27.9302C20.3304 27.9272 20.2706 27.9239 20.211 27.9204C20.0527 27.9103 19.8944 27.8995 19.7362 27.8886C19.0983 27.0225 18.352 26.3194 17.5324 25.8205C18.5697 25.7292 19.6997 25.4165 20.8794 24.89ZM6.15378 23.5385L6.16777 23.554C6.41682 23.8262 6.68003 24.0847 6.9574 24.3257C7.25059 24.5807 7.55958 24.8163 7.8836 25.0275C8.03301 25.1249 8.18573 25.2165 8.34105 25.3035C8.38718 25.329 8.43348 25.3541 8.48004 25.3789C8.52643 25.4031 8.57299 25.4271 8.61981 25.4507L8.57394 25.4799C8.42053 25.5791 8.26973 25.6823 8.1224 25.7909C7.77545 26.0465 7.44665 26.3285 7.13714 26.6314C6.88774 26.8754 6.65085 27.133 6.42681 27.4022C6.37443 27.4651 6.32292 27.5287 6.27201 27.5929L6.0637 27.5179C5.88953 27.4536 5.71701 27.3848 5.54692 27.3096C5.21994 27.165 4.90174 26.9994 4.59397 26.815C4.46792 26.7394 4.34361 26.6607 4.22113 26.579C4.11037 26.505 4.00135 26.4288 3.89624 26.3465C3.71286 26.2028 3.54138 26.0442 3.37824 25.8766C3.35192 25.8491 3.32577 25.8216 3.29989 25.7938C3.46754 25.5655 3.64918 25.3481 3.84846 25.1488C3.95653 25.0406 4.07041 24.9392 4.18629 24.8402C4.3146 24.7306 4.4456 24.6244 4.5792 24.5217C4.84146 24.3202 5.11344 24.1324 5.3942 23.9597C5.54275 23.8683 5.69381 23.7819 5.84661 23.6985C5.91194 23.6636 5.91185 23.6636 5.97744 23.6292L6.15378 23.5385ZM26.3785 21.137L26.7984 21.2053L26.8706 21.2173C27.211 21.2752 27.5501 21.3411 27.8874 21.4164C28.6833 21.594 29.4689 21.8207 30.2394 22.0933C30.5364 22.1984 30.8313 22.3103 31.1236 22.429C31.266 22.4868 31.4082 22.5455 31.5488 22.608C31.6793 22.6659 31.8085 22.7268 31.9362 22.7907C32.2749 22.96 32.6036 23.1503 32.9212 23.3591C33.0795 23.4633 33.2348 23.5724 33.3877 23.685C33.4355 23.7207 33.4831 23.7565 33.5304 23.7927L33.5106 23.8066L33.4609 23.8415C32.8137 24.2928 32.145 24.7112 31.4504 25.0797C31.2824 25.1688 31.113 25.2551 30.9421 25.3382C30.7549 25.4292 30.5661 25.5167 30.3769 25.6031C30.0274 25.7626 29.6752 25.916 29.3205 26.0628C28.6496 26.3406 27.9696 26.595 27.2813 26.8224C26.9324 26.9376 26.5814 27.0453 26.2284 27.1465C26.1305 27.1743 26.0323 27.2017 25.934 27.2286C25.7984 27.2653 25.6628 27.3017 25.5271 27.3379C25.4993 27.311 25.4712 27.2843 25.4431 27.2578C25.0988 26.9329 24.7395 26.6253 24.3661 26.3372C23.7628 25.8717 23.1225 25.457 22.4509 25.1056C22.1644 24.9557 21.8721 24.8186 21.5754 24.6921C21.5266 24.6716 21.4777 24.6514 21.4287 24.6313C21.6755 24.5082 21.9197 24.3801 22.1606 24.2453C22.7917 23.8925 23.4021 23.5006 23.9926 23.0794C24.668 22.5978 25.3178 22.0779 25.9431 21.5284C26.0896 21.3996 26.2347 21.269 26.3785 21.137ZM2.74167 25.8271C1.89035 24.8023 1.19931 23.4135 0.65152 22.018C1.50101 20.9016 2.5483 19.7908 3.70782 19.097L3.69853 19.0587C3.30753 17.438 3.21128 15.484 3.26323 13.5537C3.77601 13.2949 4.3146 13.062 4.8703 12.8676C5.78537 12.5512 6.73372 12.3521 7.65366 12.3689C7.55211 12.9528 7.47688 13.5418 7.44969 14.1347C7.44291 14.2815 7.43909 14.4284 7.43848 14.5754C7.43796 14.7071 7.44039 14.8387 7.44344 14.9705C7.4483 15.1848 7.45638 15.3992 7.46776 15.6133C7.51128 16.4329 7.60449 17.2495 7.75625 18.0553C7.77241 18.1394 7.78909 18.2235 7.80629 18.3074C7.59129 18.2895 7.37585 18.2789 7.16016 18.2769C6.70835 18.2727 6.25629 18.3044 5.809 18.3706C5.65741 18.3931 5.50635 18.4196 5.35598 18.4499C5.2692 18.4674 5.1825 18.4857 5.09642 18.507C5.00121 18.5304 4.90687 18.5574 4.8134 18.5875C4.57468 18.6642 4.34222 18.7613 4.11689 18.8731C4.00899 18.9266 3.90301 18.9839 3.79808 19.0433C3.75282 19.0694 3.75291 19.0694 3.70782 19.0957C3.81806 19.5388 3.95288 19.9753 4.1274 20.3959C4.17769 20.5172 4.23112 20.6369 4.2881 20.755C4.33093 20.8436 4.37575 20.9313 4.4211 21.0187C4.4912 21.1535 4.56356 21.2871 4.6381 21.4194C4.85379 21.8018 5.08842 22.1728 5.34226 22.5292C5.47221 22.7116 5.60773 22.8894 5.74715 23.064C5.78268 23.1078 5.81534 23.1485 5.85139 23.1917C5.66714 23.2865 5.48524 23.3857 5.30673 23.4917C4.93093 23.7146 4.56938 23.9634 4.22469 24.2349C4.1075 24.3273 3.99223 24.4222 3.87895 24.5198C3.81337 24.5762 3.74821 24.6331 3.68471 24.692C3.61435 24.7573 3.54581 24.8246 3.4791 24.8939C3.23934 25.1427 3.0246 25.4152 2.8268 25.7006C2.79813 25.7426 2.76973 25.7847 2.74167 25.8271ZM9.59135 22.7014C10.0996 23.4195 10.6902 24.0047 11.3468 24.4269C10.5789 24.521 9.81121 24.7829 9.07787 25.1814L8.76479 25.0234L8.72093 25.0009L8.67723 24.9781C8.45528 24.8597 8.23906 24.7309 8.02954 24.5902C7.50094 24.2351 7.0163 23.8123 6.57666 23.3453L6.61002 23.3312C6.81207 23.2464 7.01674 23.1684 7.22435 23.0993C7.69961 22.9412 8.18903 22.8268 8.68479 22.7651C8.79589 22.7512 8.90761 22.7433 9.01915 22.7351C9.09724 22.7297 9.17542 22.7248 9.2536 22.7201L9.59135 22.7014ZM20.2945 21.3473L20.7956 21.2554C20.9751 21.2228 21.1549 21.191 21.3349 21.1607C21.4748 21.1373 21.6149 21.1144 21.7554 21.0947C21.8966 21.0748 22.0386 21.0589 22.1804 21.0441C23.3814 20.9197 24.595 20.9352 25.7947 21.0679L25.7457 21.1114C25.4714 21.3535 25.1934 21.591 24.9099 21.8214C24.1243 22.4599 23.3009 23.0501 22.4371 23.5693C22.1225 23.7584 21.8024 23.9369 21.4774 24.106C21.4249 24.1329 21.3725 24.1596 21.3198 24.1863L20.8556 24.4178C19.7655 24.0471 18.6793 23.8797 17.6494 23.9213C18.5728 23.2794 19.4672 22.411 20.2945 21.3473ZM7.65366 12.3689C8.03823 10.1649 8.92003 7.68951 9.97514 5.27158C11.7038 5.50536 13.5274 6.07615 14.9299 7.2781C16.5494 4.81535 18.8572 2.33497 21.3645 0C22.8161 1.80288 24.0851 4.06207 24.5399 6.6697C26.3367 5.60021 28.3607 4.71061 30.4946 3.96921C31.8993 3.48121 33.3486 3.0581 34.8083 2.68906C34.6277 6.07003 34.0087 9.66048 32.5934 12.8841C35.9291 12.9552 39.29 13.9698 42.3485 15.3502C39.906 18.6023 37.1662 21.647 34.2603 23.8131L34.2225 23.7809L34.1846 23.7488C33.9691 23.5685 33.7481 23.3953 33.5205 23.2316C33.1178 22.9419 32.6961 22.6808 32.2578 22.4532C32.0958 22.3691 31.9315 22.2894 31.7654 22.2147C31.6057 22.1429 31.444 22.0759 31.282 22.0101C30.9591 21.879 30.6331 21.7559 30.3045 21.641C29.6146 21.3998 28.9129 21.1948 28.2027 21.0278C27.882 20.9524 27.5595 20.8855 27.2359 20.8253C27.1619 20.8118 27.088 20.7986 27.0141 20.7858C26.9403 20.7732 26.8667 20.7609 26.7928 20.749L26.8544 20.6898C27.1464 20.408 27.4334 20.1209 27.7147 19.8276C28.3699 19.1441 28.9951 18.4299 29.5904 17.69C29.8721 17.3398 30.1471 16.9838 30.4153 16.6225C30.5419 16.4521 30.6675 16.2809 30.7898 16.1071C30.9189 15.9236 31.0444 15.7374 31.1662 15.5488C31.4998 15.0326 31.8065 14.4979 32.0875 13.9491C32.2287 13.6732 32.3629 13.3937 32.4918 13.1114C32.526 13.0358 32.5599 12.9599 32.5934 12.8841L32.5348 12.8829L32.4764 12.8819C32.1652 12.8775 31.8541 12.8805 31.5431 12.893C30.9442 12.9169 30.3465 12.9741 29.7541 13.0676C29.5253 13.1038 29.2973 13.1453 29.0704 13.1924C28.8626 13.2355 28.6558 13.2833 28.4492 13.3324C28.0654 13.4236 27.6831 13.5222 27.3027 13.6283C26.5431 13.84 25.7912 14.0814 25.0501 14.3543C24.7081 14.4802 24.3687 14.6133 24.0314 14.7523C23.9551 14.784 23.8789 14.816 23.8027 14.8482C23.7272 14.8805 23.6518 14.9129 23.5765 14.9457L23.6007 14.8702C23.7134 14.515 23.8192 14.1576 23.9165 13.7974C24.144 12.9552 24.3278 12.1003 24.467 11.2377C24.5247 10.8803 24.5747 10.5217 24.6171 10.1622C24.6381 9.98345 24.658 9.80446 24.6735 9.62512C24.6894 9.44083 24.7007 9.25609 24.7074 9.07116C24.7258 8.55968 24.7088 8.04703 24.6585 7.53798C24.6312 7.26316 24.5937 6.9896 24.5481 6.71748C24.5454 6.70155 24.5426 6.68563 24.5399 6.6697C24.3017 6.81314 24.0652 6.95936 23.8316 7.11063C23.3577 7.41757 22.8945 7.7427 22.4467 8.08932C22.2349 8.25328 22.0266 8.422 21.8224 8.59595C21.675 8.72139 21.5302 8.85016 21.3858 8.9792C21.1623 9.1787 20.9413 9.38108 20.7227 9.58643C20.0988 10.1725 19.4953 10.7822 18.9167 11.4164C18.6621 11.6955 18.4127 11.9797 18.1678 12.2681C18.0999 12.3486 18.0322 12.4295 17.9648 12.5105C17.8984 12.5909 17.8324 12.6715 17.7667 12.7524L17.7523 12.6918C17.684 12.4086 17.6092 12.1272 17.5259 11.8483C17.3354 11.2098 17.1042 10.5841 16.8312 9.97841C16.7203 9.7322 16.6025 9.48942 16.4777 9.25051C16.4166 9.13352 16.3545 9.01708 16.2888 8.90298C16.2282 8.79797 16.1646 8.69484 16.098 8.59379C15.9084 8.30601 15.6946 8.03542 15.4607 7.7849C15.3251 7.63966 15.1827 7.50171 15.0351 7.3697C15.0002 7.33884 14.9651 7.30833 14.9299 7.2781C14.7996 7.47769 14.6714 7.67863 14.5471 7.88217C14.2722 8.33229 14.0137 8.79338 13.7775 9.26661C13.6776 9.46683 13.5817 9.66912 13.4904 9.87366C13.423 10.0244 13.3582 10.1764 13.2941 10.3286C13.1969 10.5596 13.1024 10.7919 13.0108 11.0253C12.7584 11.669 12.5279 12.322 12.3231 12.9836C12.2363 13.2637 12.1546 13.5455 12.077 13.8285C12.0539 13.9135 12.0311 13.9987 12.0087 14.0839C11.9923 14.1474 11.9759 14.2107 11.9599 14.2742C11.9546 14.2952 11.944 14.3373 11.944 14.3373L11.9083 14.3061C11.7291 14.1506 11.5454 14.0009 11.3562 13.8586C10.9895 13.5829 10.604 13.3339 10.2029 13.1154C9.99425 13.0017 9.78133 12.8962 9.56477 12.7995C9.46452 12.7547 9.36358 12.7108 9.26116 12.6713C9.1663 12.6346 9.07005 12.6015 8.97293 12.5718C8.70703 12.4906 8.43391 12.4354 8.15845 12.4032C8.02823 12.388 7.89767 12.3785 7.76676 12.3724C7.7103 12.3703 7.71012 12.3704 7.65366 12.3689ZM9.30364 22.2668C9.10454 22.2778 8.90517 22.2895 8.70677 22.31C8.58758 22.3224 8.46883 22.3398 8.35052 22.3591C7.78848 22.4508 7.23625 22.6046 6.70331 22.8105C6.5559 22.8674 6.41005 22.9286 6.26576 22.9934L6.17628 22.893C6.0425 22.7302 5.91237 22.5643 5.78737 22.3942C5.52277 22.034 5.27919 21.6572 5.0562 21.268C4.96889 21.1157 4.88463 20.9613 4.80358 20.8054C4.72818 20.6603 4.65538 20.5142 4.5891 20.3645C4.44004 20.028 4.31773 19.6782 4.218 19.3228L4.21956 19.322C4.47956 19.1887 4.74807 19.0738 5.02727 18.9908C5.17564 18.9467 5.32671 18.9136 5.47829 18.8837C5.64734 18.8504 5.81734 18.8224 5.98804 18.7995C6.36253 18.7494 6.74015 18.7249 7.11768 18.7265C7.29732 18.7273 7.47679 18.7345 7.65609 18.7468C7.74044 18.7531 7.82487 18.7597 7.90922 18.7667C7.92886 18.8504 7.94927 18.9339 7.97047 19.0174C8.18547 19.863 8.47509 20.6911 8.86104 21.4697C8.97875 21.707 9.10602 21.9388 9.2417 22.1655C9.26221 22.1993 9.28288 22.233 9.30364 22.2668C9.29209 22.2483 9.26941 22.2508 9.23832 22.269L9.30364 22.2668ZM9.82086 22.2696L9.63939 21.9754C9.51951 21.778 9.40632 21.5766 9.30095 21.3704C9.02531 20.8309 8.79946 20.2649 8.61442 19.6858C8.52443 19.4041 8.44338 19.1191 8.37258 18.8317L8.40081 18.8364C8.55058 18.8623 8.69982 18.8916 8.8481 18.9257C9.1584 18.9975 9.46461 19.0886 9.76396 19.1996C10.0578 19.3084 10.3451 19.4362 10.6232 19.583C10.7525 19.6512 10.8794 19.724 11.0047 19.7999C11.0513 19.8286 11.0512 19.8285 11.0976 19.8576L11.4159 20.0609C11.5217 21.107 11.7644 22.0455 12.1386 22.8431C11.4316 22.4942 10.6459 22.3056 9.82086 22.2696ZM17.9342 19.0114L18.3885 18.6221C18.6189 18.4267 18.8534 18.2366 19.0929 18.0532C19.7349 17.5614 20.408 17.1133 21.1016 16.7036C21.4576 16.4934 21.8192 16.2934 22.1855 16.1029C22.3425 16.0213 22.5005 15.9417 22.659 15.8632C22.714 15.8363 22.769 15.8094 22.8241 15.7827C22.499 16.6495 22.1239 17.4964 21.7011 18.3167C21.3367 19.0237 20.9372 19.7134 20.4791 20.36C20.4347 20.4215 20.4348 20.4215 20.3899 20.4828L20.0276 20.9705C18.8187 21.2809 17.732 21.7407 16.8055 22.3334C17.3259 21.3516 17.7072 20.2273 17.9342 19.0114ZM11.8246 19.8208L11.803 19.4106C11.7943 19.2235 11.7888 19.0363 11.7877 18.849C11.7845 18.2698 11.8188 17.6907 11.8816 17.1153C11.9522 16.4674 12.059 15.8239 12.1945 15.1873L12.2 15.1929C12.34 15.3384 12.4763 15.4874 12.6077 15.6412C12.8537 15.9297 13.0832 16.2333 13.2944 16.55C13.5034 16.8636 13.6945 17.1902 13.8659 17.5275C13.9559 17.7047 14.0398 17.8851 14.1193 18.0676L14.3134 18.5222C13.8806 19.6645 13.6261 20.7587 13.5606 21.7717C13.1247 21.016 12.532 20.3573 11.8246 19.8208ZM14.7497 18.4827L14.963 18.0932L15.0107 18.0052C15.2363 17.5864 15.4617 17.1674 15.6934 16.7522C15.9633 16.2687 16.2406 15.7896 16.529 15.3178C16.8418 14.8064 17.1679 14.3036 17.5139 13.8155C17.5237 13.8019 17.5334 13.7882 17.5431 13.7747L17.5443 13.7816C17.6646 14.5137 17.7229 15.2565 17.7382 15.9986C17.7448 16.324 17.7427 16.6496 17.7304 16.9749C17.7167 17.3387 17.6896 17.7016 17.6436 18.0625C17.639 18.0962 17.6344 18.1299 17.6297 18.1636C17.5987 18.3738 17.566 18.5837 17.5327 18.7936C16.594 19.6755 15.8362 20.6064 15.2825 21.5533C15.2887 20.528 15.1066 19.4871 14.7497 18.4827ZM20.6889 20.818C20.7521 20.733 20.8144 20.6478 20.8752 20.5612C21.0971 20.2458 21.304 19.919 21.5009 19.5863C21.7236 19.2099 21.9333 18.8253 22.1323 18.4349C22.5672 17.5817 22.9528 16.7006 23.2835 15.7986C23.3178 15.705 23.3514 15.611 23.3844 15.5168L23.8189 15.3283L23.8932 15.2963C24.2461 15.1457 24.6017 15.0018 24.9602 14.8661C25.8222 14.5398 26.6994 14.2572 27.587 14.0155C27.9348 13.9208 28.2842 13.8323 28.635 13.75C28.7899 13.7136 28.945 13.678 29.1007 13.6451C29.2657 13.6102 29.4314 13.5782 29.5976 13.5493C30.3598 13.4166 31.1326 13.3455 31.9055 13.3325L31.8925 13.3592C31.5502 14.0633 31.1681 14.7464 30.7401 15.3986C30.6421 15.5481 30.5416 15.696 30.4388 15.842C30.3187 16.0127 30.1953 16.1809 30.0711 16.3483C29.8437 16.6546 29.6113 16.957 29.374 17.2552C28.7519 18.0376 28.096 18.7913 27.4065 19.5106C27.1488 19.7793 26.8861 20.0427 26.6194 20.3016C26.4923 20.4244 26.365 20.5467 26.2376 20.6689C26.0126 20.6391 25.7871 20.6132 25.5611 20.5917C24.3741 20.4786 23.1753 20.4781 21.9898 20.6125C21.8921 20.6235 21.7945 20.6351 21.6971 20.6488C21.4944 20.6772 21.2926 20.7117 21.0908 20.7464C20.9568 20.7697 20.8227 20.7935 20.6889 20.818ZM8.26113 18.3597L8.221 18.1644L8.21118 18.1157C8.0569 17.3379 7.95987 16.5492 7.91105 15.7569C7.89472 15.4915 7.88368 15.2258 7.8776 14.9599C7.87265 14.7391 7.87083 14.5184 7.87795 14.2976C7.89133 13.8826 7.93094 13.4695 7.98567 13.0584C7.99575 12.9857 8.00617 12.913 8.01703 12.8404C8.32376 12.8712 8.62737 12.9298 8.92142 13.026C9.08213 13.0784 9.23814 13.1435 9.39277 13.2126C9.55791 13.2864 9.72078 13.3655 9.88123 13.4497C10.2538 13.6452 10.6128 13.8682 10.9554 14.1154C11.1266 14.2389 11.2931 14.3687 11.4561 14.5035C11.5025 14.5422 11.5486 14.5812 11.5944 14.6206C11.6726 14.6885 11.7506 14.7567 11.8286 14.825C11.8121 14.8974 11.7962 14.9699 11.7805 15.0426C11.6485 15.6569 11.5423 16.2774 11.4684 16.9021C11.4007 17.4746 11.3601 18.0509 11.354 18.6277C11.3514 18.8727 11.3558 19.1174 11.3659 19.3621C11.3682 19.4098 11.3705 19.4574 11.373 19.505C11.1929 19.3899 11.009 19.2816 10.8204 19.182C10.3856 18.9526 9.92962 18.7668 9.46131 18.6249C9.11687 18.5205 8.76584 18.4398 8.41124 18.3824C8.36129 18.3743 8.31125 18.3668 8.26113 18.3597ZM18.0465 18.3147L18.0488 18.2997C18.1145 17.8672 18.1479 17.4299 18.1644 16.9926C18.1818 16.5326 18.1797 16.0717 18.1608 15.6118C18.1413 15.1401 18.1042 14.6689 18.0447 14.2008C18.006 13.8963 17.9578 13.5928 17.8956 13.2925L18.1477 12.9822L18.1963 12.9227C18.4291 12.6394 18.6663 12.3602 18.9088 12.0857C19.4997 11.4172 20.119 10.7758 20.7611 10.1602C21.059 9.87456 21.3619 9.59453 21.6693 9.31998C21.7836 9.21793 21.8979 9.11589 22.0138 9.01582C22.1546 8.89425 22.2974 8.7752 22.442 8.65867C22.7959 8.37359 23.1607 8.10309 23.5336 7.84546C23.7399 7.70283 23.949 7.56479 24.1597 7.42918C24.1753 7.41928 24.1909 7.4093 24.2066 7.3994L24.2116 7.44367C24.2355 7.66234 24.254 7.88145 24.2655 8.1012C24.2846 8.46664 24.2852 8.83315 24.2671 9.19876C24.2599 9.34391 24.2497 9.48888 24.2366 9.63358C24.2222 9.79186 24.2045 9.94988 24.1859 10.1077C24.1507 10.4066 24.1101 10.7049 24.0641 11.0022C23.9327 11.8515 23.7574 12.6935 23.539 13.5233C23.4391 13.9033 23.3294 14.2804 23.2118 14.6549C23.1556 14.8319 23.0989 15.0087 23.0421 15.1856C22.8841 15.2584 22.7269 15.3328 22.5704 15.4089C21.4314 15.9638 20.3297 16.6054 19.2955 17.3494C18.9635 17.5881 18.6397 17.8382 18.323 18.0981C18.2759 18.1372 18.2289 18.1764 18.1821 18.2158C18.1358 18.255 18.0895 18.2944 18.0434 18.3339C18.0484 18.3296 18.0491 18.3231 18.0465 18.3147ZM12.308 14.6752L12.3801 14.3881C12.4497 14.1144 12.5233 13.8417 12.6019 13.5706C12.8013 12.8822 13.0299 12.203 13.2827 11.5337C13.404 11.2127 13.531 10.8939 13.6633 10.5775C13.7951 10.2621 13.9317 9.94898 14.0805 9.64177C14.3609 9.06298 14.6769 8.50389 15.015 7.95938L15.0355 7.97999C15.127 8.07313 15.2158 8.16896 15.3013 8.26804C15.4737 8.46808 15.6325 8.68044 15.7758 8.90361C15.8921 9.08466 15.9958 9.27336 16.0957 9.46458C16.1978 9.66012 16.2952 9.85837 16.3877 10.059C16.6741 10.68 16.9148 11.3236 17.111 11.9812C17.186 12.2326 17.254 12.4861 17.3165 12.7411C17.3529 12.8916 17.3887 13.0423 17.4243 13.1929C17.0845 13.6459 16.7668 14.1166 16.4622 14.5956C15.9502 15.4007 15.4767 16.2309 15.0183 17.0697C14.8594 17.3621 14.703 17.656 14.5431 17.948C14.4338 17.6919 14.3156 17.4402 14.1864 17.1942C13.9035 16.6562 13.5725 16.1454 13.2 15.6698C12.968 15.3735 12.7199 15.0909 12.4573 14.8236C12.4081 14.7736 12.3583 14.7241 12.308 14.6752Z" fill="white" fill-opacity="0.66"/>
</svg>